# xmcd
#
# Track frame offsets: 
#        150
#        13147
#        24462
#        38422
#        53164
#        65757
#        79182
#        92232
#        108132
#        123162
#        137690
#        149592
#        161197
#        173030
#        184350
#        199717
#        223087
#        238400
#        249855
#        261600
#
# Disc length: 3671 seconds
#
# Revision: 6
# Processed by: cddbd v1.5.2PL0 Copyright (c) Steve Scherf et al.
# Submitted via: ExactAudioCopy v1.3
#
DISCID=280e5514
DTITLE=Various Artist - Living The Blues - Vocal Classics
DYEAR=1997
DGENRE=Blues
TTITLE0=Big Mama Thornton - Yes Baby
TTITLE1=Chuck Willis - C. C. Rider
TTITLE2=Ray Charles - Come Back Baby
TTITLE3=Dinah Washington - Gambler's Blues
TTITLE4=Big Joe Turner - The Chill Is On
TTITLE5=Big Maybelle  - Pitiful
TTITLE6=Muddy Waters - Forty Days And Forty Nights
TTITLE7=Lowel Fulson - Black Nights
TTITLE8=Esther Phillips - No Headstone On My Grave
TTITLE9=Ted Taylor - How's Your Love Life Baby
TTITLE10=Freddy King - I'm Torn Down
TTITLE11=Johnny Taylor - If You Love Me (Like You Say)
TTITLE12=Johnny Adams - A Losing Battle
TTITLE13=Little Willie John - Suffering With The Blues
TTITLE14=Little Milton - Blind Man
TTITLE15=B. B. King - Don't Answer The Door
TTITLE16=Etta James - You Can Leave Your Hat On
TTITLE17=Little Junior Parker - Crying For My Baby
TTITLE18=Bobby Bland - Two Steps From The Blues
TTITLE19=Johnnie Taylor - I Had A Dream
EXTD=YEAR: 1997
EXTT0=
EXTT1=
EXTT2=
EXTT3=
EXTT4=
EXTT5=
EXTT6=
EXTT7=
EXTT8=
EXTT9=
EXTT10=
EXTT11=
EXTT12=
EXTT13=
EXTT14=
EXTT15=
EXTT16=
EXTT17=
EXTT18=
EXTT19=
PLAYORDER=
